# xmcd
#
# Track frame offsets:
#	150
#	22002
#	35402
#	48645
#	68865
#	86880
#	128802
#	149135
#	162847
#	177452
#	191660
#	216385
#
# Disc length: 3041 seconds
#
# Revision: 10
# Processed by: cddbd v1.5.1PL0 Copyright (c) Steve Scherf et al.
# Submitted via: CDmax 2.0
#
DISCID=b90bdf0c,be0bdf0c
DTITLE=Taj Mahal - Taj's Blues
DYEAR=1992
DGENRE=Blues
TTITLE0=Leaving Trunk
TTITLE1=Statesboro Blues
TTITLE2=Everbody's Got to Change Sometime
TTITLE3=Bound to Love Me Some
TTITLE4=Frankie and Albert
TTITLE5=East Bay Woman
TTITLE6=Dust My Broom
TTITLE7=Corinna
TTITLE8=Jellyroll
TTITLE9=Fishin' Blues
TTITLE10=Sounder Medley: Needed Time #2/Curiosity Blues/Horse Shoes/Needed Ti
TTITLE10=me #3
TTITLE11=Country Blues #1
EXTD=YEAR: 1996
EXTT0=
EXTT1=
EXTT2=
EXTT3=
EXTT4=
EXTT5=
EXTT6=
EXTT7=
EXTT8=
EXTT9=
EXTT10=
EXTT11=
PLAYORDER=
